<mxfile host="app.diagrams.net" modified="2022-09-19T10:41:31.798Z" agent="5.0 (Macintosh; Intel Mac OS X 10_15_7) AppleWebKit/537.36 (KHTML, like Gecko) Chrome/103.0.5060.134 Safari/537.36 OPR/89.0.4447.83" etag="y6oLPYzN9Zzj8HtQBvrF" version="20.2.3" type="github">
  <diagram id="wx0ULSbh4RNVia0ze8wq" name="Page-1">
    <mxGraphModel dx="940" dy="636" grid="1" gridSize="10" guides="1" tooltips="1" connect="1" arrows="1" fold="1" page="1" pageScale="1" pageWidth="827" pageHeight="1169" math="0" shadow="0">
      <root>
        <mxCell id="0" />
        <mxCell id="1" parent="0" />
        <mxCell id="0bHXdb6QIi8qzi4hTeOt-1" value="&lt;font color=&quot;#994c00&quot;&gt;def&lt;/font&gt; &lt;font color=&quot;#004c99&quot;&gt;funcname&lt;/font&gt;(a,b,c,d=&lt;font color=&quot;#009999&quot;&gt;5&lt;/font&gt;,e=&lt;font color=&quot;#009999&quot;&gt;10&lt;/font&gt;)&lt;br&gt;&amp;nbsp; &amp;nbsp; &lt;i&gt;statements...&lt;/i&gt;" style="text;html=1;strokeColor=none;fillColor=none;align=left;verticalAlign=middle;whiteSpace=wrap;rounded=0;fontSize=20;fontFamily=Courier New;fontStyle=1" vertex="1" parent="1">
          <mxGeometry x="250" y="190" width="430" height="30" as="geometry" />
        </mxCell>
        <mxCell id="0bHXdb6QIi8qzi4hTeOt-2" value="&lt;font color=&quot;#4c0099&quot;&gt;funcname&lt;/font&gt;(a1,b1,d=&lt;font color=&quot;#009999&quot;&gt;15&lt;/font&gt;,c=&lt;font color=&quot;#009999&quot;&gt;20&lt;/font&gt;)" style="text;html=1;strokeColor=none;fillColor=none;align=left;verticalAlign=middle;whiteSpace=wrap;rounded=0;fontSize=20;fontFamily=Courier New;fontStyle=1" vertex="1" parent="1">
          <mxGeometry x="250" y="280" width="321" height="30" as="geometry" />
        </mxCell>
        <mxCell id="0bHXdb6QIi8qzi4hTeOt-3" value="" style="shape=curlyBracket;whiteSpace=wrap;html=1;rounded=1;fontFamily=Courier New;fontSize=20;fontColor=#4C0099;" vertex="1" parent="1">
          <mxGeometry x="210" y="170" width="20" height="70" as="geometry" />
        </mxCell>
        <mxCell id="0bHXdb6QIi8qzi4hTeOt-4" value="" style="shape=curlyBracket;whiteSpace=wrap;html=1;rounded=1;fontFamily=Courier New;fontSize=20;fontColor=#4C0099;size=0.5;" vertex="1" parent="1">
          <mxGeometry x="210" y="260" width="20" height="70" as="geometry" />
        </mxCell>
        <mxCell id="0bHXdb6QIi8qzi4hTeOt-5" value="Funktionsaufruf" style="text;html=1;strokeColor=none;fillColor=none;align=right;verticalAlign=middle;whiteSpace=wrap;rounded=0;fontFamily=Comic Sans MS;fontSize=18;fontColor=#4C0099;" vertex="1" parent="1">
          <mxGeometry x="50" y="278" width="150" height="30" as="geometry" />
        </mxCell>
        <mxCell id="0bHXdb6QIi8qzi4hTeOt-6" value="Funktionsdefinition" style="text;html=1;strokeColor=none;fillColor=none;align=right;verticalAlign=middle;whiteSpace=wrap;rounded=0;fontFamily=Comic Sans MS;fontSize=18;fontColor=#994C00;" vertex="1" parent="1">
          <mxGeometry x="30" y="188" width="171" height="30" as="geometry" />
        </mxCell>
        <mxCell id="0bHXdb6QIi8qzi4hTeOt-7" value="" style="shape=curlyBracket;whiteSpace=wrap;html=1;rounded=1;flipH=1;fontFamily=Comic Sans MS;fontSize=18;fontColor=#994C00;rotation=-90;" vertex="1" parent="1">
          <mxGeometry x="518" y="114" width="20" height="100" as="geometry" />
        </mxCell>
        <mxCell id="0bHXdb6QIi8qzi4hTeOt-8" value="Default-Argument" style="text;html=1;strokeColor=none;fillColor=none;align=left;verticalAlign=middle;whiteSpace=wrap;rounded=0;fontFamily=Comic Sans MS;fontSize=18;fontColor=#FF6666;" vertex="1" parent="1">
          <mxGeometry x="453" y="120" width="167" height="30" as="geometry" />
        </mxCell>
        <mxCell id="0bHXdb6QIi8qzi4hTeOt-9" value="Positions-Argument" style="text;html=1;strokeColor=none;fillColor=none;align=left;verticalAlign=middle;whiteSpace=wrap;rounded=0;fontFamily=Comic Sans MS;fontSize=18;fontColor=#FF6666;" vertex="1" parent="1">
          <mxGeometry x="240" y="330" width="167" height="30" as="geometry" />
        </mxCell>
        <mxCell id="0bHXdb6QIi8qzi4hTeOt-10" value="Keyword-Argument" style="text;html=1;strokeColor=none;fillColor=none;align=left;verticalAlign=middle;whiteSpace=wrap;rounded=0;fontFamily=Comic Sans MS;fontSize=18;fontColor=#FF6666;" vertex="1" parent="1">
          <mxGeometry x="450" y="330" width="214" height="30" as="geometry" />
        </mxCell>
        <mxCell id="0bHXdb6QIi8qzi4hTeOt-11" value="" style="shape=curlyBracket;whiteSpace=wrap;html=1;rounded=1;flipH=1;fontFamily=Comic Sans MS;fontSize=18;fontColor=#994C00;rotation=90;" vertex="1" parent="1">
          <mxGeometry x="378" y="290" width="20" height="60" as="geometry" />
        </mxCell>
        <mxCell id="0bHXdb6QIi8qzi4hTeOt-12" value="" style="shape=curlyBracket;whiteSpace=wrap;html=1;rounded=1;flipH=1;fontFamily=Comic Sans MS;fontSize=18;fontColor=#994C00;rotation=90;" vertex="1" parent="1">
          <mxGeometry x="476" y="265" width="20" height="110" as="geometry" />
        </mxCell>
      </root>
    </mxGraphModel>
  </diagram>
</mxfile>
